<svg xmlns="http://www.w3.org/2000/svg" xmlns:xlink="http://www.w3.org/1999/xlink" width="287" zoomAndPan="magnify" viewBox="0 0 215.25 104.999996" height="140" preserveAspectRatio="xMidYMid meet" version="1.2"><defs><clipPath id="646f64d276"><path d="M 0 0.183594 L 214.503906 0.183594 L 214.503906 104.816406 L 0 104.816406 Z M 0 0.183594 "/></clipPath><clipPath id="d421766a84"><path d="M 0 0.183594 L 214.320312 0.183594 L 214.320312 104.730469 L 0 104.730469 Z M 0 0.183594 "/></clipPath></defs><g id="4a2afd06d5"><g clip-rule="nonzero" clip-path="url(#646f64d276)"><path style=" stroke:none;fill-rule:nonzero;fill:#ffffff;fill-opacity:1;" d="M 0 0.183594 L 214.503906 0.183594 L 214.503906 104.816406 L 0 104.816406 Z M 0 0.183594 "/></g><g clip-rule="nonzero" clip-path="url(#d421766a84)"><path style=" stroke:none;fill-rule:nonzero;fill:#ffffff;fill-opacity:1;" d="M 0 0.183594 L 214.320312 0.183594 L 214.320312 104.730469 L 0 104.730469 Z M 0 0.183594 "/></g><g style="fill:#004aad;fill-opacity:1;"><g transform="translate(2.226409, 67.705331)"><path style="stroke:none" d="M 18.40625 -21.171875 C 16.5625 -21.171875 14.976562 -20.488281 13.65625 -19.125 C 12.332031 -17.757812 11.671875 -16.117188 11.671875 -14.203125 C 11.671875 -12.253906 12.332031 -10.597656 13.65625 -9.234375 C 14.976562 -7.867188 16.5625 -7.1875 18.40625 -7.1875 C 19.289062 -7.1875 20.128906 -7.296875 20.921875 -7.515625 C 21.710938 -7.734375 22.296875 -7.957031 22.671875 -8.1875 L 23.15625 -8.515625 L 26.484375 -1.71875 C 26.222656 -1.53125 25.859375 -1.296875 25.390625 -1.015625 C 24.929688 -0.742188 23.882812 -0.367188 22.25 0.109375 C 20.613281 0.585938 18.851562 0.828125 16.96875 0.828125 C 12.800781 0.828125 9.140625 -0.632812 5.984375 -3.5625 C 2.835938 -6.488281 1.265625 -10 1.265625 -14.09375 C 1.265625 -18.21875 2.835938 -21.765625 5.984375 -24.734375 C 9.140625 -27.703125 12.800781 -29.1875 16.96875 -29.1875 C 18.851562 -29.1875 20.585938 -28.960938 22.171875 -28.515625 C 23.753906 -28.078125 24.878906 -27.640625 25.546875 -27.203125 L 26.484375 -26.53125 L 23.15625 -19.84375 C 21.945312 -20.726562 20.363281 -21.171875 18.40625 -21.171875 Z M 18.40625 -21.171875 "/></g></g><g style="fill:#004aad;fill-opacity:1;"><g transform="translate(29.088566, 67.705331)"><path style="stroke:none" d="M 5.25 -3.5 C 2.59375 -6.394531 1.265625 -9.941406 1.265625 -14.140625 C 1.265625 -18.347656 2.59375 -21.90625 5.25 -24.8125 C 7.90625 -27.726562 11.28125 -29.1875 15.375 -29.1875 C 19.125 -29.1875 22.21875 -28.007812 24.65625 -25.65625 L 24.65625 -28.359375 L 34.4375 -28.359375 L 34.4375 0 L 24.765625 0 L 24.765625 -3.203125 L 24.65625 -3.203125 C 22.21875 -0.515625 19.125 0.828125 15.375 0.828125 C 11.28125 0.828125 7.90625 -0.613281 5.25 -3.5 Z M 13.578125 -18.953125 C 12.304688 -17.703125 11.671875 -16.097656 11.671875 -14.140625 C 11.671875 -12.191406 12.273438 -10.597656 13.484375 -9.359375 C 14.703125 -8.128906 16.304688 -7.515625 18.296875 -7.515625 C 20.210938 -7.515625 21.785156 -8.140625 23.015625 -9.390625 C 24.253906 -10.648438 24.875 -12.238281 24.875 -14.15625 C 24.875 -16.101562 24.238281 -17.703125 22.96875 -18.953125 C 21.695312 -20.210938 20.140625 -20.84375 18.296875 -20.84375 C 16.421875 -20.84375 14.847656 -20.210938 13.578125 -18.953125 Z M 13.578125 -18.953125 "/></g></g><g style="fill:#004aad;fill-opacity:1;"><g transform="translate(66.839315, 67.705331)"><path style="stroke:none" d="M 3.3125 0 L 3.3125 -28.359375 L 13.109375 -28.359375 L 13.109375 -25.375 L 13.21875 -25.375 C 15.757812 -27.914062 18.46875 -29.1875 21.34375 -29.1875 C 22.738281 -29.1875 24.125 -29 25.5 -28.625 C 26.882812 -28.257812 28.210938 -27.691406 29.484375 -26.921875 C 30.765625 -26.148438 31.800781 -25.050781 32.59375 -23.625 C 33.382812 -22.207031 33.78125 -20.5625 33.78125 -18.6875 L 33.78125 0 L 23.984375 0 L 23.984375 -16.03125 C 23.984375 -17.507812 23.515625 -18.800781 22.578125 -19.90625 C 21.640625 -21.007812 20.414062 -21.5625 18.90625 -21.5625 C 17.425781 -21.5625 16.085938 -20.988281 14.890625 -19.84375 C 13.703125 -18.695312 13.109375 -17.425781 13.109375 -16.03125 L 13.109375 0 Z M 3.3125 0 "/></g></g><g style="fill:#5e17eb;fill-opacity:1;"><g transform="translate(103.377479, 67.705331)"><path style="stroke:none" d="M 3.3125 0 L 3.3125 -47.546875 L 13.109375 -47.546875 L 13.109375 -25.375 L 13.21875 -25.375 C 15.757812 -27.914062 18.46875 -29.1875 21.34375 -29.1875 C 22.738281 -29.1875 24.125 -29 25.5 -28.625 C 26.882812 -28.257812 28.210938 -27.691406 29.484375 -26.921875 C 30.765625 -26.148438 31.800781 -25.050781 32.59375 -23.625 C 33.382812 -22.207031 33.78125 -20.5625 33.78125 -18.6875 L 33.78125 0 L 23.984375 0 L 23.984375 -16.03125 C 23.984375 -17.507812 23.515625 -18.800781 22.578125 -19.90625 C 21.640625 -21.007812 20.414062 -21.5625 18.90625 -21.5625 C 17.425781 -21.5625 16.085938 -20.988281 14.890625 -19.84375 C 13.703125 -18.695312 13.109375 -17.425781 13.109375 -16.03125 L 13.109375 0 Z M 3.3125 0 "/></g></g><g style="fill:#5e17eb;fill-opacity:1;"><g transform="translate(139.912235, 67.705331)"><path style="stroke:none" d="M 5.25 -3.5 C 2.59375 -6.394531 1.265625 -9.941406 1.265625 -14.140625 C 1.265625 -18.347656 2.59375 -21.90625 5.25 -24.8125 C 7.90625 -27.726562 11.28125 -29.1875 15.375 -29.1875 C 19.125 -29.1875 22.21875 -28.007812 24.65625 -25.65625 L 24.65625 -28.359375 L 34.4375 -28.359375 L 34.4375 0 L 24.765625 0 L 24.765625 -3.203125 L 24.65625 -3.203125 C 22.21875 -0.515625 19.125 0.828125 15.375 0.828125 C 11.28125 0.828125 7.90625 -0.613281 5.25 -3.5 Z M 13.578125 -18.953125 C 12.304688 -17.703125 11.671875 -16.097656 11.671875 -14.140625 C 11.671875 -12.191406 12.273438 -10.597656 13.484375 -9.359375 C 14.703125 -8.128906 16.304688 -7.515625 18.296875 -7.515625 C 20.210938 -7.515625 21.785156 -8.140625 23.015625 -9.390625 C 24.253906 -10.648438 24.875 -12.238281 24.875 -14.15625 C 24.875 -16.101562 24.238281 -17.703125 22.96875 -18.953125 C 21.695312 -20.210938 20.140625 -20.84375 18.296875 -20.84375 C 16.421875 -20.84375 14.847656 -20.210938 13.578125 -18.953125 Z M 13.578125 -18.953125 "/></g></g><g style="fill:#5e17eb;fill-opacity:1;"><g transform="translate(177.441882, 67.705331)"><path style="stroke:none" d="M 10.5 -28.359375 L 17.40625 -12.9375 L 24.328125 -28.359375 L 35.9375 -28.359375 L 20.734375 0 L 14.09375 0 L -1.109375 -28.359375 Z M 10.5 -28.359375 "/></g></g></g></svg>